G04 Layer_Color=65535*
%FSLAX24Y24*%
%MOIN*%
G70*
G01*
G75*
%ADD10C,0.0080*%
%ADD30C,0.0100*%
%ADD49C,0.0236*%
%ADD50C,0.0098*%
%ADD51C,0.0050*%
%ADD52C,0.0079*%
%ADD53C,0.0080*%
%ADD54C,0.0080*%
%ADD55C,0.0070*%
%ADD56C,0.0090*%
G36*
X10285Y4009D02*
X10285D01*
X10283Y4009D01*
X10281Y4008D01*
X10278Y4008D01*
X10274Y4007D01*
X10270Y4006D01*
X10260Y4002D01*
X10250Y3998D01*
X10239Y3992D01*
X10229Y3985D01*
X10225Y3981D01*
X10221Y3977D01*
X10220Y3976D01*
X10218Y3972D01*
X10214Y3967D01*
X10210Y3960D01*
X10207Y3951D01*
X10204Y3940D01*
X10202Y3927D01*
X10200Y3913D01*
Y3913D01*
Y3912D01*
Y3909D01*
X10201Y3906D01*
Y3902D01*
X10202Y3897D01*
X10203Y3892D01*
X10204Y3887D01*
X10207Y3874D01*
X10212Y3861D01*
X10218Y3846D01*
X10223Y3839D01*
X10227Y3832D01*
X10228Y3831D01*
X10228Y3830D01*
X10230Y3828D01*
X10232Y3826D01*
X10235Y3822D01*
X10239Y3819D01*
X10243Y3815D01*
X10248Y3810D01*
X10253Y3805D01*
X10259Y3801D01*
X10266Y3795D01*
X10273Y3790D01*
X10281Y3785D01*
X10290Y3780D01*
X10300Y3776D01*
X10310Y3771D01*
X10311D01*
X10313Y3770D01*
X10316Y3769D01*
X10320Y3768D01*
X10325Y3766D01*
X10331Y3764D01*
X10338Y3762D01*
X10345Y3760D01*
X10354Y3758D01*
X10362Y3756D01*
X10381Y3753D01*
X10402Y3750D01*
X10423Y3749D01*
X10429D01*
X10433Y3750D01*
X10439Y3750D01*
X10444Y3751D01*
X10451Y3751D01*
X10458Y3753D01*
X10473Y3756D01*
X10489Y3761D01*
X10497Y3765D01*
X10504Y3769D01*
X10511Y3774D01*
X10518Y3779D01*
X10518Y3779D01*
X10520Y3780D01*
X10521Y3781D01*
X10523Y3784D01*
X10526Y3787D01*
X10528Y3790D01*
X10531Y3794D01*
X10535Y3799D01*
X10541Y3810D01*
X10546Y3822D01*
X10548Y3829D01*
X10550Y3836D01*
X10551Y3844D01*
X10551Y3852D01*
Y3852D01*
Y3854D01*
Y3856D01*
X10551Y3859D01*
Y3862D01*
X10550Y3867D01*
X10548Y3877D01*
X10545Y3888D01*
X10540Y3901D01*
X10533Y3914D01*
X10530Y3920D01*
X10525Y3927D01*
X10525Y3927D01*
X10524Y3928D01*
X10522Y3930D01*
X10520Y3932D01*
X10517Y3935D01*
X10514Y3938D01*
X10510Y3942D01*
X10505Y3946D01*
X10500Y3950D01*
X10494Y3954D01*
X10488Y3958D01*
X10481Y3963D01*
X10473Y3967D01*
X10465Y3971D01*
X10456Y3975D01*
X10446Y3978D01*
X10462Y4084D01*
X10464Y4083D01*
X10466Y4082D01*
X10471Y4081D01*
X10477Y4078D01*
X10484Y4074D01*
X10492Y4071D01*
X10501Y4066D01*
X10511Y4061D01*
X10522Y4054D01*
X10533Y4047D01*
X10543Y4039D01*
X10555Y4031D01*
X10566Y4022D01*
X10576Y4012D01*
X10586Y4001D01*
X10594Y3990D01*
X10595Y3990D01*
X10596Y3987D01*
X10598Y3984D01*
X10602Y3979D01*
X10605Y3973D01*
X10609Y3966D01*
X10613Y3958D01*
X10617Y3948D01*
X10621Y3938D01*
X10625Y3927D01*
X10629Y3915D01*
X10632Y3902D01*
X10635Y3889D01*
X10637Y3875D01*
X10639Y3860D01*
X10639Y3845D01*
Y3844D01*
Y3841D01*
X10639Y3836D01*
X10638Y3829D01*
X10638Y3821D01*
X10637Y3812D01*
X10635Y3802D01*
X10632Y3791D01*
X10629Y3779D01*
X10626Y3767D01*
X10621Y3755D01*
X10616Y3743D01*
X10609Y3731D01*
X10602Y3719D01*
X10593Y3708D01*
X10583Y3698D01*
X10583Y3697D01*
X10581Y3695D01*
X10577Y3693D01*
X10573Y3689D01*
X10567Y3685D01*
X10560Y3681D01*
X10551Y3676D01*
X10542Y3671D01*
X10531Y3666D01*
X10518Y3661D01*
X10505Y3657D01*
X10490Y3653D01*
X10474Y3650D01*
X10457Y3647D01*
X10439Y3645D01*
X10419Y3645D01*
X10411D01*
X10404Y3645D01*
X10396Y3646D01*
X10387Y3647D01*
X10377Y3648D01*
X10366Y3649D01*
X10354Y3651D01*
X10341Y3653D01*
X10328Y3656D01*
X10315Y3660D01*
X10301Y3664D01*
X10287Y3668D01*
X10273Y3674D01*
X10259Y3680D01*
X10258Y3680D01*
X10256Y3681D01*
X10252Y3684D01*
X10247Y3686D01*
X10241Y3690D01*
X10234Y3694D01*
X10227Y3700D01*
X10218Y3705D01*
X10209Y3712D01*
X10200Y3719D01*
X10191Y3728D01*
X10182Y3736D01*
X10173Y3746D01*
X10164Y3756D01*
X10156Y3766D01*
X10148Y3778D01*
X10148Y3779D01*
X10147Y3781D01*
X10145Y3784D01*
X10142Y3789D01*
X10139Y3795D01*
X10136Y3802D01*
X10132Y3810D01*
X10129Y3819D01*
X10125Y3829D01*
X10122Y3839D01*
X10118Y3851D01*
X10116Y3862D01*
X10113Y3875D01*
X10111Y3888D01*
X10110Y3901D01*
X10109Y3915D01*
Y3916D01*
Y3919D01*
X10110Y3923D01*
Y3929D01*
X10111Y3936D01*
X10112Y3944D01*
X10113Y3953D01*
X10115Y3963D01*
X10117Y3973D01*
X10121Y3984D01*
X10124Y3996D01*
X10128Y4007D01*
X10133Y4018D01*
X10139Y4029D01*
X10147Y4039D01*
X10154Y4049D01*
X10155Y4050D01*
X10157Y4052D01*
X10159Y4054D01*
X10163Y4058D01*
X10167Y4062D01*
X10173Y4066D01*
X10179Y4071D01*
X10186Y4077D01*
X10194Y4082D01*
X10204Y4087D01*
X10214Y4092D01*
X10224Y4097D01*
X10236Y4102D01*
X10249Y4105D01*
X10262Y4108D01*
X10276Y4110D01*
X10285Y4009D01*
D02*
G37*
G36*
X10256Y4494D02*
X10259D01*
X10264Y4493D01*
X10273Y4492D01*
X10284Y4489D01*
X10296Y4485D01*
X10309Y4478D01*
X10315Y4475D01*
X10321Y4471D01*
X10322D01*
X10323Y4470D01*
X10324Y4468D01*
X10326Y4466D01*
X10333Y4461D01*
X10339Y4454D01*
X10347Y4445D01*
X10355Y4434D01*
X10362Y4421D01*
X10369Y4407D01*
Y4407D01*
X10369Y4409D01*
X10370Y4410D01*
X10372Y4412D01*
X10375Y4418D01*
X10381Y4425D01*
X10387Y4433D01*
X10395Y4441D01*
X10404Y4448D01*
X10414Y4455D01*
X10414D01*
X10415Y4455D01*
X10416Y4456D01*
X10418Y4457D01*
X10424Y4460D01*
X10431Y4462D01*
X10439Y4465D01*
X10449Y4468D01*
X10459Y4470D01*
X10470Y4470D01*
X10476D01*
X10480Y4470D01*
X10485Y4469D01*
X10491Y4468D01*
X10497Y4467D01*
X10505Y4465D01*
X10512Y4463D01*
X10521Y4460D01*
X10529Y4457D01*
X10538Y4453D01*
X10547Y4448D01*
X10556Y4443D01*
X10566Y4437D01*
X10575Y4430D01*
X10575Y4429D01*
X10577Y4427D01*
X10581Y4424D01*
X10584Y4420D01*
X10589Y4414D01*
X10595Y4407D01*
X10601Y4400D01*
X10607Y4391D01*
X10613Y4382D01*
X10619Y4371D01*
X10624Y4359D01*
X10629Y4347D01*
X10633Y4333D01*
X10637Y4319D01*
X10639Y4304D01*
X10639Y4288D01*
Y4288D01*
Y4285D01*
Y4282D01*
X10639Y4278D01*
X10638Y4272D01*
X10637Y4265D01*
X10636Y4258D01*
X10635Y4250D01*
X10631Y4233D01*
X10628Y4224D01*
X10624Y4215D01*
X10620Y4207D01*
X10615Y4198D01*
X10609Y4189D01*
X10603Y4181D01*
X10602Y4180D01*
X10601Y4179D01*
X10599Y4177D01*
X10596Y4174D01*
X10592Y4171D01*
X10587Y4167D01*
X10582Y4163D01*
X10576Y4159D01*
X10568Y4154D01*
X10561Y4150D01*
X10552Y4145D01*
X10543Y4142D01*
X10532Y4138D01*
X10521Y4135D01*
X10510Y4132D01*
X10497Y4130D01*
X10486Y4226D01*
X10486D01*
X10487Y4226D01*
X10490D01*
X10492Y4227D01*
X10496Y4228D01*
X10500Y4229D01*
X10508Y4231D01*
X10517Y4234D01*
X10527Y4237D01*
X10536Y4241D01*
X10539Y4244D01*
X10542Y4247D01*
X10543Y4248D01*
X10545Y4250D01*
X10547Y4253D01*
X10550Y4258D01*
X10553Y4264D01*
X10556Y4271D01*
X10557Y4279D01*
X10558Y4289D01*
Y4289D01*
Y4290D01*
Y4292D01*
X10557Y4294D01*
X10557Y4301D01*
X10555Y4309D01*
X10552Y4317D01*
X10548Y4327D01*
X10543Y4337D01*
X10535Y4346D01*
X10534Y4347D01*
X10531Y4349D01*
X10526Y4353D01*
X10519Y4357D01*
X10510Y4361D01*
X10500Y4365D01*
X10488Y4367D01*
X10476Y4369D01*
X10471D01*
X10465Y4367D01*
X10458Y4366D01*
X10450Y4364D01*
X10442Y4361D01*
X10434Y4356D01*
X10426Y4350D01*
X10426Y4350D01*
X10424Y4347D01*
X10420Y4343D01*
X10417Y4337D01*
X10414Y4330D01*
X10410Y4322D01*
X10408Y4312D01*
X10407Y4301D01*
Y4300D01*
Y4300D01*
Y4296D01*
X10408Y4291D01*
X10409Y4285D01*
X10325Y4303D01*
Y4304D01*
Y4306D01*
X10326Y4309D01*
Y4313D01*
Y4313D01*
Y4314D01*
Y4316D01*
X10325Y4319D01*
Y4322D01*
X10325Y4326D01*
X10323Y4335D01*
X10321Y4345D01*
X10317Y4356D01*
X10312Y4365D01*
X10305Y4374D01*
X10304Y4375D01*
X10301Y4377D01*
X10297Y4381D01*
X10291Y4385D01*
X10283Y4389D01*
X10273Y4392D01*
X10262Y4394D01*
X10250Y4395D01*
X10246D01*
X10241Y4395D01*
X10235Y4394D01*
X10229Y4392D01*
X10223Y4389D01*
X10216Y4386D01*
X10210Y4381D01*
X10210Y4380D01*
X10208Y4378D01*
X10205Y4375D01*
X10203Y4371D01*
X10200Y4365D01*
X10198Y4359D01*
X10196Y4352D01*
X10195Y4344D01*
Y4342D01*
Y4340D01*
X10196Y4336D01*
X10198Y4331D01*
X10199Y4325D01*
X10202Y4318D01*
X10206Y4311D01*
X10212Y4305D01*
X10212Y4304D01*
X10215Y4302D01*
X10219Y4299D01*
X10224Y4295D01*
X10232Y4290D01*
X10242Y4286D01*
X10253Y4281D01*
X10266Y4278D01*
X10248Y4186D01*
X10248D01*
X10245Y4187D01*
X10243Y4188D01*
X10239Y4189D01*
X10234Y4191D01*
X10229Y4193D01*
X10223Y4195D01*
X10216Y4199D01*
X10202Y4205D01*
X10188Y4214D01*
X10174Y4223D01*
X10167Y4229D01*
X10161Y4234D01*
X10160Y4235D01*
X10159Y4236D01*
X10157Y4239D01*
X10154Y4243D01*
X10150Y4248D01*
X10147Y4253D01*
X10143Y4259D01*
X10138Y4266D01*
X10134Y4275D01*
X10130Y4283D01*
X10126Y4293D01*
X10123Y4303D01*
X10120Y4314D01*
X10117Y4325D01*
X10116Y4337D01*
X10116Y4350D01*
Y4351D01*
Y4354D01*
Y4357D01*
X10116Y4362D01*
X10117Y4368D01*
X10118Y4375D01*
X10119Y4382D01*
X10121Y4390D01*
X10123Y4399D01*
X10125Y4407D01*
X10128Y4416D01*
X10132Y4425D01*
X10137Y4434D01*
X10142Y4442D01*
X10148Y4450D01*
X10155Y4457D01*
X10155Y4458D01*
X10157Y4459D01*
X10159Y4461D01*
X10162Y4463D01*
X10165Y4466D01*
X10170Y4469D01*
X10175Y4472D01*
X10182Y4476D01*
X10188Y4480D01*
X10195Y4483D01*
X10203Y4486D01*
X10212Y4489D01*
X10220Y4491D01*
X10229Y4493D01*
X10239Y4494D01*
X10249Y4495D01*
X10253D01*
X10256Y4494D01*
D02*
G37*
G36*
X10256Y3403D02*
X10261D01*
X10270Y3402D01*
X10282Y3400D01*
X10295Y3397D01*
X10308Y3393D01*
X10322Y3388D01*
X10323D01*
X10324Y3387D01*
X10325Y3386D01*
X10328Y3385D01*
X10331Y3384D01*
X10335Y3382D01*
X10343Y3378D01*
X10352Y3372D01*
X10362Y3366D01*
X10372Y3359D01*
X10381Y3351D01*
X10382Y3350D01*
X10385Y3347D01*
X10389Y3343D01*
X10393Y3337D01*
X10399Y3330D01*
X10404Y3322D01*
X10410Y3314D01*
X10414Y3304D01*
X10415Y3303D01*
X10415Y3301D01*
X10416Y3300D01*
X10418Y3294D01*
X10420Y3286D01*
X10423Y3276D01*
X10426Y3265D01*
X10429Y3251D01*
X10431Y3236D01*
Y3236D01*
Y3235D01*
X10432Y3234D01*
Y3231D01*
Y3229D01*
X10432Y3225D01*
Y3221D01*
X10433Y3215D01*
X10434Y3210D01*
Y3203D01*
X10434Y3195D01*
Y3187D01*
Y3178D01*
X10435Y3167D01*
Y3156D01*
Y3144D01*
Y3076D01*
X10630Y3035D01*
Y2930D01*
X10118Y3037D01*
Y3245D01*
Y3246D01*
Y3247D01*
Y3251D01*
Y3255D01*
X10118Y3259D01*
Y3265D01*
X10119Y3271D01*
X10119Y3277D01*
X10121Y3291D01*
X10123Y3306D01*
X10127Y3320D01*
X10131Y3333D01*
Y3333D01*
X10132Y3335D01*
X10133Y3336D01*
X10134Y3338D01*
X10137Y3344D01*
X10142Y3351D01*
X10148Y3360D01*
X10155Y3368D01*
X10164Y3376D01*
X10175Y3384D01*
X10175D01*
X10176Y3385D01*
X10178Y3386D01*
X10180Y3387D01*
X10183Y3388D01*
X10187Y3390D01*
X10195Y3394D01*
X10205Y3397D01*
X10218Y3401D01*
X10232Y3403D01*
X10246Y3403D01*
X10253D01*
X10256Y3403D01*
D02*
G37*
G36*
X10630Y3508D02*
Y3403D01*
X10118Y3510D01*
Y3615D01*
X10630Y3508D01*
D02*
G37*
G36*
X10198Y5948D02*
X10547Y5650D01*
Y5651D01*
Y5652D01*
Y5654D01*
Y5658D01*
Y5661D01*
X10546Y5666D01*
Y5674D01*
Y5684D01*
X10546Y5693D01*
Y5697D01*
Y5700D01*
Y5703D01*
Y5704D01*
Y5705D01*
Y5706D01*
Y5708D01*
Y5711D01*
Y5714D01*
Y5718D01*
Y5723D01*
Y5729D01*
Y5735D01*
X10545Y5742D01*
Y5749D01*
Y5758D01*
Y5767D01*
Y5776D01*
X10545Y5787D01*
Y5797D01*
Y5919D01*
X10630Y5901D01*
Y5504D01*
X10550Y5520D01*
X10203Y5815D01*
Y5577D01*
X10118Y5595D01*
Y5964D01*
X10198Y5948D01*
D02*
G37*
G36*
X3813Y6959D02*
X3592Y7180D01*
X3813D01*
Y6959D01*
D02*
G37*
G36*
X10264Y4900D02*
X10272Y4899D01*
X10281Y4897D01*
X10292Y4895D01*
X10303Y4892D01*
X10314Y4887D01*
X10315D01*
X10315Y4887D01*
X10317Y4886D01*
X10319Y4885D01*
X10326Y4882D01*
X10334Y4877D01*
X10343Y4872D01*
X10354Y4865D01*
X10366Y4856D01*
X10378Y4846D01*
X10379Y4845D01*
X10382Y4842D01*
X10388Y4837D01*
X10395Y4830D01*
X10400Y4825D01*
X10405Y4820D01*
X10411Y4815D01*
X10417Y4809D01*
X10423Y4802D01*
X10430Y4795D01*
X10438Y4787D01*
X10446Y4779D01*
X10446Y4778D01*
X10447Y4776D01*
X10450Y4774D01*
X10453Y4771D01*
X10456Y4768D01*
X10460Y4763D01*
X10470Y4754D01*
X10479Y4743D01*
X10489Y4733D01*
X10498Y4724D01*
X10502Y4720D01*
X10505Y4717D01*
X10506Y4716D01*
X10508Y4714D01*
X10511Y4711D01*
X10515Y4707D01*
X10520Y4703D01*
X10526Y4698D01*
X10538Y4688D01*
Y4865D01*
X10630Y4846D01*
Y4535D01*
X10628D01*
X10626Y4536D01*
X10624Y4536D01*
X10621Y4537D01*
X10617Y4537D01*
X10607Y4539D01*
X10596Y4542D01*
X10584Y4546D01*
X10572Y4551D01*
X10559Y4557D01*
X10558D01*
X10557Y4557D01*
X10556Y4558D01*
X10553Y4560D01*
X10550Y4562D01*
X10547Y4564D01*
X10538Y4569D01*
X10528Y4575D01*
X10517Y4582D01*
X10506Y4591D01*
X10495Y4600D01*
X10495Y4601D01*
X10493Y4601D01*
X10492Y4603D01*
X10490Y4605D01*
X10486Y4608D01*
X10482Y4612D01*
X10478Y4616D01*
X10472Y4622D01*
X10466Y4628D01*
X10459Y4634D01*
X10451Y4642D01*
X10442Y4651D01*
X10434Y4660D01*
X10423Y4670D01*
X10412Y4682D01*
X10400Y4694D01*
X10400Y4695D01*
X10398Y4697D01*
X10396Y4699D01*
X10392Y4703D01*
X10389Y4707D01*
X10384Y4712D01*
X10374Y4722D01*
X10363Y4733D01*
X10352Y4744D01*
X10348Y4749D01*
X10343Y4753D01*
X10339Y4757D01*
X10336Y4760D01*
X10335Y4760D01*
X10335Y4761D01*
X10331Y4764D01*
X10326Y4768D01*
X10320Y4773D01*
X10313Y4779D01*
X10304Y4784D01*
X10296Y4789D01*
X10289Y4793D01*
X10288Y4794D01*
X10285Y4795D01*
X10281Y4796D01*
X10276Y4798D01*
X10271Y4800D01*
X10265Y4801D01*
X10259Y4802D01*
X10253Y4803D01*
X10248D01*
X10244Y4802D01*
X10238Y4801D01*
X10231Y4799D01*
X10224Y4796D01*
X10217Y4792D01*
X10210Y4787D01*
X10210Y4786D01*
X10208Y4784D01*
X10205Y4781D01*
X10202Y4776D01*
X10199Y4771D01*
X10197Y4765D01*
X10195Y4757D01*
X10194Y4749D01*
Y4748D01*
Y4745D01*
X10195Y4740D01*
X10197Y4735D01*
X10199Y4728D01*
X10202Y4721D01*
X10207Y4714D01*
X10213Y4707D01*
X10214Y4707D01*
X10216Y4704D01*
X10221Y4701D01*
X10228Y4697D01*
X10232Y4695D01*
X10237Y4693D01*
X10242Y4690D01*
X10248Y4688D01*
X10254Y4686D01*
X10261Y4684D01*
X10269Y4682D01*
X10278Y4680D01*
X10263Y4583D01*
X10263D01*
X10260Y4583D01*
X10256Y4584D01*
X10251Y4586D01*
X10245Y4587D01*
X10239Y4589D01*
X10231Y4591D01*
X10223Y4594D01*
X10214Y4597D01*
X10205Y4601D01*
X10196Y4606D01*
X10187Y4611D01*
X10178Y4617D01*
X10169Y4623D01*
X10161Y4630D01*
X10154Y4638D01*
X10153Y4638D01*
X10152Y4640D01*
X10150Y4642D01*
X10148Y4645D01*
X10145Y4650D01*
X10142Y4655D01*
X10138Y4661D01*
X10134Y4668D01*
X10131Y4675D01*
X10128Y4684D01*
X10124Y4693D01*
X10122Y4702D01*
X10119Y4712D01*
X10117Y4723D01*
X10116Y4735D01*
X10116Y4747D01*
Y4747D01*
Y4750D01*
Y4753D01*
X10116Y4758D01*
X10117Y4764D01*
X10118Y4771D01*
X10119Y4779D01*
X10121Y4788D01*
X10122Y4796D01*
X10125Y4805D01*
X10128Y4815D01*
X10132Y4824D01*
X10137Y4834D01*
X10142Y4843D01*
X10148Y4851D01*
X10154Y4859D01*
X10155Y4860D01*
X10156Y4861D01*
X10158Y4863D01*
X10162Y4866D01*
X10165Y4869D01*
X10170Y4872D01*
X10175Y4876D01*
X10181Y4880D01*
X10188Y4884D01*
X10195Y4887D01*
X10204Y4891D01*
X10213Y4894D01*
X10222Y4896D01*
X10232Y4899D01*
X10242Y4900D01*
X10253Y4900D01*
X10258D01*
X10264Y4900D01*
D02*
G37*
G36*
X10630Y5410D02*
Y5315D01*
X10205Y5403D01*
X10630Y5213D01*
Y5113D01*
X10202Y5095D01*
X10630Y5013D01*
Y4918D01*
X10118Y5025D01*
Y5175D01*
X10471Y5191D01*
X10118Y5352D01*
Y5503D01*
X10630Y5410D01*
D02*
G37*
%LPC*%
G36*
X10255Y3298D02*
X10252D01*
X10249Y3297D01*
X10245Y3297D01*
X10240Y3296D01*
X10235Y3295D01*
X10230Y3292D01*
X10225Y3290D01*
X10225Y3289D01*
X10223Y3288D01*
X10221Y3286D01*
X10219Y3284D01*
X10215Y3280D01*
X10213Y3276D01*
X10210Y3272D01*
X10208Y3266D01*
Y3266D01*
X10207Y3263D01*
X10206Y3259D01*
X10205Y3256D01*
X10205Y3252D01*
X10204Y3249D01*
X10204Y3244D01*
X10203Y3238D01*
Y3232D01*
X10203Y3225D01*
X10202Y3218D01*
Y3210D01*
Y3200D01*
Y3125D01*
X10349Y3094D01*
Y3126D01*
Y3128D01*
Y3130D01*
Y3134D01*
Y3140D01*
X10349Y3146D01*
Y3154D01*
X10348Y3163D01*
Y3171D01*
X10347Y3190D01*
X10345Y3209D01*
X10344Y3217D01*
X10343Y3225D01*
X10341Y3232D01*
X10339Y3237D01*
Y3238D01*
X10339Y3239D01*
X10337Y3242D01*
X10335Y3247D01*
X10331Y3254D01*
X10326Y3261D01*
X10321Y3268D01*
X10314Y3275D01*
X10306Y3282D01*
X10305Y3282D01*
X10302Y3285D01*
X10297Y3287D01*
X10291Y3290D01*
X10283Y3293D01*
X10275Y3296D01*
X10265Y3297D01*
X10255Y3298D01*
D02*
G37*
%LPD*%
D10*
X-470Y5661D02*
G03*
X-572Y5563I-2J-100D01*
G01*
X-572Y3378D02*
G03*
X-470Y3261I110J-7D01*
G01*
X22919Y5910D02*
G03*
X22919Y5910I-39J0D01*
G01*
X22890Y6710D02*
G03*
X22890Y6710I-500J0D01*
G01*
Y2670D02*
G03*
X22890Y2670I-500J0D01*
G01*
X21940Y3470D02*
G03*
X21940Y3470I-39J0D01*
G01*
X-553Y6035D02*
X-316Y5799D01*
X-470Y5661D02*
X-320D01*
X-316Y5799D02*
X80D01*
X-316Y5664D02*
Y5799D01*
X-572Y3378D02*
Y5563D01*
X-320Y5661D02*
X-316Y5664D01*
X980Y5799D02*
X1652D01*
Y5327D02*
Y5799D01*
X-41Y3122D02*
Y5799D01*
X1101Y5327D02*
X1652D01*
X1101Y3594D02*
Y5327D01*
X-470Y3261D02*
X-320D01*
X-316Y3257D01*
Y3122D02*
Y3257D01*
X-553Y2886D02*
X-316Y3122D01*
X80D01*
X1101Y3594D02*
X1652D01*
X980Y3122D02*
X1652D01*
Y3594D01*
X4000Y6234D02*
Y7966D01*
Y6234D02*
X5780D01*
X4000Y7966D02*
X5780D01*
Y6234D02*
Y7966D01*
X18850Y1770D02*
Y1970D01*
X18900D01*
X19100Y1770D01*
X19150D01*
Y1970D01*
X18950Y2070D02*
X19100D01*
X19150Y2120D01*
X19100Y2170D01*
X19150Y2220D01*
X19100Y2270D01*
X18950D01*
X19150Y2520D02*
Y2420D01*
X19100Y2370D01*
X19000D01*
X18950Y2420D01*
Y2520D01*
X19000Y2570D01*
X19050D01*
Y2370D01*
X19150Y2670D02*
Y2770D01*
Y2720D01*
X18950D01*
Y2670D01*
X297Y7988D02*
X255Y8030D01*
X172D01*
X130Y7988D01*
Y7822D01*
X172Y7780D01*
X255D01*
X297Y7822D01*
Y7905D01*
X213D01*
X380Y7780D02*
Y8030D01*
X547Y7780D01*
Y8030D01*
X630D02*
Y7780D01*
X755D01*
X796Y7822D01*
Y7988D01*
X755Y8030D01*
X630D01*
X992Y8077D02*
X950Y8035D01*
Y7952D01*
X992Y7910D01*
X1158D01*
X1200Y7952D01*
Y8035D01*
X1158Y8077D01*
X1200Y8160D02*
Y8243D01*
Y8202D01*
X950D01*
X992Y8160D01*
X1200Y8493D02*
X950D01*
X1075Y8368D01*
Y8535D01*
X1967Y7927D02*
X1920Y7880D01*
Y7787D01*
X1967Y7740D01*
X2153D01*
X2200Y7787D01*
Y7880D01*
X2153Y7927D01*
X2200Y8020D02*
Y8113D01*
Y8067D01*
X1920D01*
X1967Y8020D01*
Y8253D02*
X1920Y8300D01*
Y8393D01*
X1967Y8440D01*
X2013D01*
X2060Y8393D01*
Y8346D01*
Y8393D01*
X2107Y8440D01*
X2153D01*
X2200Y8393D01*
Y8300D01*
X2153Y8253D01*
X2940Y8037D02*
Y7850D01*
X3080D01*
Y7943D01*
Y7850D01*
X3220D01*
X2940Y8317D02*
Y8130D01*
X3080D01*
X3033Y8223D01*
Y8270D01*
X3080Y8317D01*
X3173D01*
X3220Y8270D01*
Y8177D01*
X3173Y8130D01*
X3920Y8337D02*
Y8150D01*
X4060D01*
Y8243D01*
Y8150D01*
X4200D01*
Y8570D02*
X3920D01*
X4060Y8430D01*
Y8617D01*
X4930Y8367D02*
Y8200D01*
X5055D01*
Y8283D01*
Y8200D01*
X5180D01*
Y8450D02*
Y8533D01*
Y8492D01*
X4930D01*
X4972Y8450D01*
X9450Y7320D02*
X9730D01*
Y7460D01*
X9683Y7507D01*
X9637D01*
X9590Y7460D01*
Y7320D01*
Y7460D01*
X9543Y7507D01*
X9497D01*
X9450Y7460D01*
Y7320D01*
X9730Y7600D02*
Y7693D01*
Y7647D01*
X9450D01*
X9497Y7600D01*
Y7833D02*
X9450Y7880D01*
Y7973D01*
X9497Y8020D01*
X9543D01*
X9590Y7973D01*
Y7926D01*
Y7973D01*
X9637Y8020D01*
X9683D01*
X9730Y7973D01*
Y7880D01*
X9683Y7833D01*
X22420Y1087D02*
Y920D01*
X22670D01*
Y1087D01*
X22545Y920D02*
Y1003D01*
X22420Y1170D02*
Y1337D01*
X22462D01*
X22628Y1170D01*
X22670D01*
X21420Y1087D02*
Y920D01*
X21670D01*
Y1087D01*
X21545Y920D02*
Y1003D01*
X21420Y1337D02*
X21462Y1253D01*
X21545Y1170D01*
X21628D01*
X21670Y1212D01*
Y1295D01*
X21628Y1337D01*
X21587D01*
X21545Y1295D01*
Y1170D01*
D30*
X15133Y5056D02*
G03*
X15133Y5056I-40J0D01*
G01*
X3991Y7490D02*
G03*
X3991Y7490I-50J0D01*
G01*
D49*
X11857Y3171D02*
G03*
X11857Y3171I-118J0D01*
G01*
D50*
X12724Y2709D02*
G03*
X12724Y2709I-49J0D01*
G01*
D51*
X14490Y6301D02*
X14790D01*
X14490Y5159D02*
Y6301D01*
X14790Y5159D02*
Y6301D01*
X14490Y5159D02*
X14790D01*
X13790Y5060D02*
X14800D01*
X13790Y4600D02*
Y5060D01*
X14800Y4600D02*
Y5060D01*
X13790Y4600D02*
X14800D01*
X14010Y6880D02*
X15020D01*
X14010Y6420D02*
Y6880D01*
X15020Y6420D02*
Y6880D01*
X14010Y6420D02*
X15020D01*
X5970Y5630D02*
Y6090D01*
X4960D02*
X5970D01*
X4960Y5630D02*
X5970D01*
X4960D02*
Y6090D01*
X2750Y6780D02*
Y7180D01*
Y6780D02*
X3813Y6780D01*
X2750Y7180D02*
X3813Y7180D01*
Y6780D02*
Y7180D01*
X3870Y5760D02*
Y6220D01*
Y5760D02*
X4880D01*
X3870Y6220D02*
X4880D01*
Y5760D02*
Y6220D01*
X667Y7791D02*
X1691D01*
Y7909D01*
Y6491D02*
Y6609D01*
X667D02*
X1691D01*
X1651Y6491D02*
Y6609D01*
X1612Y6491D02*
Y6609D01*
Y6491D02*
X1691D01*
X1612Y7909D02*
X1691D01*
X1612Y7791D02*
Y7909D01*
X1651Y7791D02*
Y7909D01*
X5869Y6257D02*
Y7281D01*
X5751D02*
X5869D01*
X7051D02*
X7169D01*
X7051Y6257D02*
Y7281D01*
Y7241D02*
X7169D01*
X7051Y7202D02*
X7169D01*
Y7281D01*
X5751Y7202D02*
Y7281D01*
Y7202D02*
X5869D01*
X5751Y7241D02*
X5869D01*
X2160Y7670D02*
X2620D01*
X2160Y6660D02*
Y7670D01*
X2620Y6660D02*
Y7670D01*
X2160Y6660D02*
X2620D01*
X2660Y5360D02*
X3060D01*
X2670Y6060D02*
X3050D01*
X1320Y1350D02*
Y2360D01*
Y1350D02*
X1780D01*
X1320Y2360D02*
X1780D01*
Y1350D02*
Y2360D01*
X2140Y2245D02*
Y2645D01*
Y2245D02*
X2840D01*
X2140Y3345D02*
Y3590D01*
X2290Y3740D01*
X2840Y2245D02*
Y2645D01*
X2290Y3740D02*
X2690D01*
X2840Y3345D02*
Y3590D01*
X2250Y3700D02*
X2730D01*
X2690Y3740D02*
X2840Y3590D01*
X15280Y4020D02*
Y4480D01*
X14270D02*
X15280D01*
X14270Y4020D02*
X15280D01*
X14270D02*
Y4480D01*
X4125Y3090D02*
X4525D01*
Y3790D01*
X3180Y3090D02*
X3425D01*
X3030Y3240D02*
X3180Y3090D01*
X4125Y3790D02*
X4525D01*
X3030Y3240D02*
Y3640D01*
X3180Y3790D02*
X3425D01*
X3070Y3200D02*
Y3680D01*
X3030Y3640D02*
X3180Y3790D01*
X4145Y2150D02*
X4545D01*
Y2850D01*
X3200Y2150D02*
X3445D01*
X3050Y2300D02*
X3200Y2150D01*
X4145Y2850D02*
X4545D01*
X3050Y2300D02*
Y2700D01*
X3200Y2850D02*
X3445D01*
X3090Y2260D02*
Y2740D01*
X3050Y2700D02*
X3200Y2850D01*
X4580Y3220D02*
X5590D01*
Y3680D01*
X4580Y3220D02*
Y3680D01*
X5590D01*
X4600Y2270D02*
X5610D01*
Y2730D01*
X4600Y2270D02*
Y2730D01*
X5610D01*
X7350Y1970D02*
Y2430D01*
X6340D02*
X7350D01*
X6340Y1970D02*
X7350D01*
X6340D02*
Y2430D01*
X7650Y3300D02*
Y3760D01*
X6640D02*
X7650D01*
X6640Y3300D02*
X7650D01*
X6640D02*
Y3760D01*
X7180Y6030D02*
X7640D01*
Y7040D01*
X7180Y6030D02*
Y7040D01*
X7640D01*
X3920Y5160D02*
Y5620D01*
Y5160D02*
X4930D01*
X3920Y5620D02*
X4930D01*
Y5160D02*
Y5620D01*
X21980Y4270D02*
Y4730D01*
X22990Y4270D02*
Y4730D01*
X21980Y4270D02*
X22990D01*
X21980Y4730D02*
X22990D01*
X17790Y4190D02*
X18250D01*
X17790Y3180D02*
X18250D01*
X17790D02*
Y4190D01*
X18250Y3180D02*
Y4190D01*
D52*
X8767Y6144D02*
X12133D01*
X8767Y2778D02*
X12133D01*
X8767D02*
Y6144D01*
X12133Y2778D02*
Y6144D01*
X16450Y2030D02*
Y7030D01*
Y2030D02*
X17450D01*
X16450Y7030D02*
X17450D01*
Y2030D02*
Y7030D01*
D53*
X21390Y7710D02*
X23390D01*
X21390Y5710D02*
Y7710D01*
Y5710D02*
X23390D01*
X21390Y3670D02*
X23390D01*
Y1670D02*
Y3670D01*
X21390Y1670D02*
X23390D01*
D54*
Y5710D02*
Y7710D01*
X21390Y1670D02*
Y3670D01*
D55*
X19720Y1750D02*
Y1843D01*
Y1797D01*
X19440D01*
X19487Y1750D01*
X19673Y1983D02*
X19720Y2030D01*
Y2123D01*
X19673Y2170D01*
X19487D01*
X19440Y2123D01*
Y2030D01*
X19487Y1983D01*
X19533D01*
X19580Y2030D01*
Y2170D01*
X19720Y2263D02*
Y2356D01*
Y2310D01*
X19440D01*
X19487Y2263D01*
X19440Y2683D02*
Y2496D01*
X19580D01*
X19533Y2590D01*
Y2636D01*
X19580Y2683D01*
X19673D01*
X19720Y2636D01*
Y2543D01*
X19673Y2496D01*
X19440Y3056D02*
X19627D01*
X19720Y3150D01*
X19627Y3243D01*
X19440D01*
X19720Y3336D02*
Y3429D01*
Y3383D01*
X19440D01*
X19487Y3336D01*
X19720Y3569D02*
X19673D01*
Y3616D01*
X19720D01*
Y3569D01*
X19487Y3803D02*
X19440Y3849D01*
Y3943D01*
X19487Y3989D01*
X19673D01*
X19720Y3943D01*
Y3849D01*
X19673Y3803D01*
X19487D01*
X18960Y3060D02*
Y2860D01*
X18760Y3060D01*
X18710D01*
X18660Y3010D01*
Y2910D01*
X18710Y2860D01*
X19990Y1740D02*
X20140D01*
X20190Y1790D01*
X20140Y1840D01*
X20190Y1890D01*
X20140Y1940D01*
X19990D01*
Y2040D02*
X20140D01*
X20190Y2090D01*
X20140Y2140D01*
X20190Y2190D01*
X20140Y2240D01*
X19990D01*
Y2340D02*
X20140D01*
X20190Y2390D01*
X20140Y2440D01*
X20190Y2490D01*
X20140Y2540D01*
X19990D01*
X20190Y2640D02*
X20140D01*
Y2690D01*
X20190D01*
Y2640D01*
X19940Y3090D02*
X19890Y3040D01*
Y2940D01*
X19940Y2890D01*
X20140D01*
X20190Y2940D01*
Y3040D01*
X20140Y3090D01*
X20190Y3190D02*
Y3289D01*
Y3240D01*
X19990D01*
Y3190D01*
Y3439D02*
X20190D01*
X20090D01*
X20040Y3489D01*
X19990Y3539D01*
Y3589D01*
Y3939D02*
Y3789D01*
X20040Y3739D01*
X20140D01*
X20190Y3789D01*
Y3939D01*
X19990Y4039D02*
X20140D01*
X20190Y4089D01*
Y4239D01*
X19990D01*
X20190Y4339D02*
Y4439D01*
Y4389D01*
X19990D01*
Y4339D01*
X19940Y4639D02*
X19990D01*
Y4589D01*
Y4689D01*
Y4639D01*
X20140D01*
X20190Y4689D01*
X19890Y4839D02*
X20090D01*
X20190Y4939D01*
X20090Y5039D01*
X19890D01*
X19990Y5189D02*
Y5289D01*
X20040Y5339D01*
X20190D01*
Y5189D01*
X20140Y5139D01*
X20090Y5189D01*
Y5339D01*
X20190Y5439D02*
Y5539D01*
Y5489D01*
X19890D01*
Y5439D01*
X20190Y5689D02*
Y5789D01*
Y5739D01*
X19890D01*
Y5689D01*
X20190Y6089D02*
Y5989D01*
X20140Y5939D01*
X20040D01*
X19990Y5989D01*
Y6089D01*
X20040Y6139D01*
X20090D01*
Y5939D01*
X19990Y6239D02*
X20140D01*
X20190Y6289D01*
Y6438D01*
X20240D01*
X20290Y6388D01*
Y6339D01*
X20190Y6438D02*
X19990D01*
X20190Y6538D02*
X20140D01*
Y6588D01*
X20190D01*
Y6538D01*
X19990Y6988D02*
Y6838D01*
X20040Y6788D01*
X20140D01*
X20190Y6838D01*
Y6988D01*
Y7138D02*
Y7238D01*
X20140Y7288D01*
X20040D01*
X19990Y7238D01*
Y7138D01*
X20040Y7088D01*
X20140D01*
X20190Y7138D01*
Y7388D02*
X19990D01*
Y7438D01*
X20040Y7488D01*
X20190D01*
X20040D01*
X19990Y7538D01*
X20040Y7588D01*
X20190D01*
X16122Y2210D02*
X16080Y2252D01*
Y2335D01*
X16038Y2377D01*
X16330Y2460D02*
X16080D01*
X16163Y2543D01*
X16080Y2627D01*
X16330D01*
X16280Y6250D02*
X16030D01*
Y6375D01*
X16072Y6417D01*
X16155D01*
X16197Y6375D01*
Y6250D01*
X16072Y6667D02*
X16030Y6625D01*
Y6542D01*
X16072Y6500D01*
X16238D01*
X16280Y6542D01*
Y6625D01*
X16238Y6667D01*
X16155D01*
Y6583D01*
X16072Y6916D02*
X16030Y6875D01*
Y6791D01*
X16072Y6750D01*
X16238D01*
X16280Y6791D01*
Y6875D01*
X16238Y6916D01*
X3677Y2038D02*
X3635Y2080D01*
X3552D01*
X3510Y2038D01*
Y1872D01*
X3552Y1830D01*
X3635D01*
X3677Y1872D01*
X3760Y1830D02*
X3843D01*
X3802D01*
Y2080D01*
X3760Y2038D01*
X4093Y1830D02*
Y2080D01*
X3968Y1955D01*
X4135D01*
X3687Y4118D02*
X3645Y4160D01*
X3562D01*
X3520Y4118D01*
Y3952D01*
X3562Y3910D01*
X3645D01*
X3687Y3952D01*
X3770Y3910D02*
X3853D01*
X3812D01*
Y4160D01*
X3770Y4118D01*
X3978D02*
X4020Y4160D01*
X4103D01*
X4145Y4118D01*
Y4077D01*
X4103Y4035D01*
X4061D01*
X4103D01*
X4145Y3993D01*
Y3952D01*
X4103Y3910D01*
X4020D01*
X3978Y3952D01*
X20380Y7570D02*
X20660D01*
Y7710D01*
X20613Y7757D01*
X20567D01*
X20520Y7710D01*
Y7570D01*
Y7710D01*
X20473Y7757D01*
X20427D01*
X20380Y7710D01*
Y7570D01*
X20660Y8037D02*
Y7850D01*
X20473Y8037D01*
X20427D01*
X20380Y7990D01*
Y7897D01*
X20427Y7850D01*
X16310Y5250D02*
X16060D01*
Y5375D01*
X16102Y5417D01*
X16185D01*
X16227Y5375D01*
Y5250D01*
X16102Y5667D02*
X16060Y5625D01*
Y5542D01*
X16102Y5500D01*
X16268D01*
X16310Y5542D01*
Y5625D01*
X16268Y5667D01*
X16185D01*
Y5583D01*
X16060Y5750D02*
X16310D01*
Y5875D01*
X16268Y5916D01*
X16102D01*
X16060Y5875D01*
Y5750D01*
X16102Y4387D02*
X16060Y4345D01*
Y4262D01*
X16102Y4220D01*
X16268D01*
X16310Y4262D01*
Y4345D01*
X16268Y4387D01*
X16185D01*
Y4303D01*
X16310Y4470D02*
X16060D01*
X16310Y4637D01*
X16060D01*
Y4720D02*
X16310D01*
Y4845D01*
X16268Y4886D01*
X16102D01*
X16060Y4845D01*
Y4720D01*
X16102Y3180D02*
X16060Y3222D01*
Y3305D01*
X16102Y3347D01*
X16143D01*
X16185Y3305D01*
Y3263D01*
Y3305D01*
X16227Y3347D01*
X16268D01*
X16310Y3305D01*
Y3222D01*
X16268Y3180D01*
X16060Y3430D02*
X16227D01*
X16310Y3513D01*
X16227Y3597D01*
X16060D01*
X16102Y3680D02*
X16060Y3721D01*
Y3805D01*
X16102Y3846D01*
X16143D01*
X16185Y3805D01*
Y3763D01*
Y3805D01*
X16227Y3846D01*
X16268D01*
X16310Y3805D01*
Y3721D01*
X16268Y3680D01*
X21260Y6400D02*
X20960D01*
Y6550D01*
X21010Y6600D01*
X21110D01*
X21160Y6550D01*
Y6400D01*
Y6500D02*
X21260Y6600D01*
X21010Y6900D02*
X20960Y6850D01*
Y6750D01*
X21010Y6700D01*
X21060D01*
X21110Y6750D01*
Y6850D01*
X21160Y6900D01*
X21210D01*
X21260Y6850D01*
Y6750D01*
X21210Y6700D01*
X20960Y7000D02*
Y7200D01*
Y7100D01*
X21260D01*
X21060Y2440D02*
X21360D01*
Y2590D01*
X21310Y2640D01*
X21260D01*
X21210Y2590D01*
Y2440D01*
Y2590D01*
X21160Y2640D01*
X21110D01*
X21060Y2590D01*
Y2440D01*
X21360Y2940D02*
Y2740D01*
X21160Y2940D01*
X21110D01*
X21060Y2890D01*
Y2790D01*
X21110Y2740D01*
D56*
X6470Y8040D02*
X6270D01*
Y7890D01*
X6370D01*
X6270D01*
Y7740D01*
X6570Y7990D02*
X6620Y8040D01*
X6720D01*
X6770Y7990D01*
Y7790D01*
X6720Y7740D01*
X6620D01*
X6570Y7790D01*
Y7990D01*
X7400Y7300D02*
X7700D01*
Y7450D01*
X7650Y7500D01*
X7600D01*
X7550Y7450D01*
Y7300D01*
Y7450D01*
X7500Y7500D01*
X7450D01*
X7400Y7450D01*
Y7300D01*
X7700Y7600D02*
Y7700D01*
Y7650D01*
X7400D01*
X7450Y7600D01*
X7400Y8050D02*
Y7850D01*
X7550D01*
X7500Y7950D01*
Y8000D01*
X7550Y8050D01*
X7650D01*
X7700Y8000D01*
Y7900D01*
X7650Y7850D01*
X8440Y7320D02*
X8740D01*
Y7470D01*
X8690Y7520D01*
X8640D01*
X8590Y7470D01*
Y7320D01*
Y7470D01*
X8540Y7520D01*
X8490D01*
X8440Y7470D01*
Y7320D01*
X8740Y7620D02*
Y7720D01*
Y7670D01*
X8440D01*
X8490Y7620D01*
X8740Y8020D02*
X8440D01*
X8590Y7870D01*
Y8070D01*
X10400Y7280D02*
X10700D01*
Y7430D01*
X10650Y7480D01*
X10600D01*
X10550Y7430D01*
Y7280D01*
Y7430D01*
X10500Y7480D01*
X10450D01*
X10400Y7430D01*
Y7280D01*
X10700Y7580D02*
Y7680D01*
Y7630D01*
X10400D01*
X10450Y7580D01*
X10700Y8030D02*
Y7830D01*
X10500Y8030D01*
X10450D01*
X10400Y7980D01*
Y7880D01*
X10450Y7830D01*
X11370Y7320D02*
X11670D01*
Y7470D01*
X11620Y7520D01*
X11570D01*
X11520Y7470D01*
Y7320D01*
Y7470D01*
X11470Y7520D01*
X11420D01*
X11370Y7470D01*
Y7320D01*
X11670Y7620D02*
Y7720D01*
Y7670D01*
X11370D01*
X11420Y7620D01*
X11670Y7870D02*
Y7970D01*
Y7920D01*
X11370D01*
X11420Y7870D01*
X12390Y7270D02*
X12690D01*
Y7420D01*
X12640Y7470D01*
X12590D01*
X12540Y7420D01*
Y7270D01*
Y7420D01*
X12490Y7470D01*
X12440D01*
X12390Y7420D01*
Y7270D01*
X12690Y7570D02*
Y7670D01*
Y7620D01*
X12390D01*
X12440Y7570D01*
Y7820D02*
X12390Y7870D01*
Y7970D01*
X12440Y8020D01*
X12640D01*
X12690Y7970D01*
Y7870D01*
X12640Y7820D01*
X12440D01*
X13380Y7450D02*
X13680D01*
Y7600D01*
X13630Y7650D01*
X13580D01*
X13530Y7600D01*
Y7450D01*
Y7600D01*
X13480Y7650D01*
X13430D01*
X13380Y7600D01*
Y7450D01*
X13630Y7750D02*
X13680Y7800D01*
Y7900D01*
X13630Y7950D01*
X13430D01*
X13380Y7900D01*
Y7800D01*
X13430Y7750D01*
X13480D01*
X13530Y7800D01*
Y7950D01*
X14370Y7480D02*
X14670D01*
Y7630D01*
X14620Y7680D01*
X14570D01*
X14520Y7630D01*
Y7480D01*
Y7630D01*
X14470Y7680D01*
X14420D01*
X14370Y7630D01*
Y7480D01*
X14420Y7780D02*
X14370Y7830D01*
Y7930D01*
X14420Y7980D01*
X14470D01*
X14520Y7930D01*
X14570Y7980D01*
X14620D01*
X14670Y7930D01*
Y7830D01*
X14620Y7780D01*
X14570D01*
X14520Y7830D01*
X14470Y7780D01*
X14420D01*
X14520Y7830D02*
Y7930D01*
X15450Y7490D02*
X15750D01*
Y7640D01*
X15700Y7690D01*
X15650D01*
X15600Y7640D01*
Y7490D01*
Y7640D01*
X15550Y7690D01*
X15500D01*
X15450Y7640D01*
Y7490D01*
Y7790D02*
Y7990D01*
X15500D01*
X15700Y7790D01*
X15750D01*
X16350Y7500D02*
X16650D01*
Y7650D01*
X16600Y7700D01*
X16550D01*
X16500Y7650D01*
Y7500D01*
Y7650D01*
X16450Y7700D01*
X16400D01*
X16350Y7650D01*
Y7500D01*
Y8000D02*
X16400Y7900D01*
X16500Y7800D01*
X16600D01*
X16650Y7850D01*
Y7950D01*
X16600Y8000D01*
X16550D01*
X16500Y7950D01*
Y7800D01*
X17350Y7490D02*
X17650D01*
Y7640D01*
X17600Y7690D01*
X17550D01*
X17500Y7640D01*
Y7490D01*
Y7640D01*
X17450Y7690D01*
X17400D01*
X17350Y7640D01*
Y7490D01*
Y7990D02*
Y7790D01*
X17500D01*
X17450Y7890D01*
Y7940D01*
X17500Y7990D01*
X17600D01*
X17650Y7940D01*
Y7840D01*
X17600Y7790D01*
X18330Y7460D02*
X18630D01*
Y7610D01*
X18580Y7660D01*
X18530D01*
X18480Y7610D01*
Y7460D01*
Y7610D01*
X18430Y7660D01*
X18380D01*
X18330Y7610D01*
Y7460D01*
X18630Y7910D02*
X18330D01*
X18480Y7760D01*
Y7960D01*
X19380Y7570D02*
X19680D01*
Y7720D01*
X19630Y7770D01*
X19580D01*
X19530Y7720D01*
Y7570D01*
Y7720D01*
X19480Y7770D01*
X19430D01*
X19380Y7720D01*
Y7570D01*
X19430Y7870D02*
X19380Y7920D01*
Y8020D01*
X19430Y8070D01*
X19480D01*
X19530Y8020D01*
Y7970D01*
Y8020D01*
X19580Y8070D01*
X19630D01*
X19680Y8020D01*
Y7920D01*
X19630Y7870D01*
X20930Y7830D02*
X21230D01*
Y7980D01*
X21180Y8030D01*
X21130D01*
X21080Y7980D01*
Y7830D01*
Y7980D01*
X21030Y8030D01*
X20980D01*
X20930Y7980D01*
Y7830D01*
X21230Y8130D02*
Y8230D01*
Y8180D01*
X20930D01*
X20980Y8130D01*
X21930Y7840D02*
X22230D01*
Y7990D01*
X22180Y8040D01*
X22130D01*
X22080Y7990D01*
Y7840D01*
Y7990D01*
X22030Y8040D01*
X21980D01*
X21930Y7990D01*
Y7840D01*
X21980Y8140D02*
X21930Y8190D01*
Y8290D01*
X21980Y8340D01*
X22180D01*
X22230Y8290D01*
Y8190D01*
X22180Y8140D01*
X21980D01*
X22982Y7960D02*
X22940Y8002D01*
Y8085D01*
X22982Y8127D01*
X23023D01*
X23065Y8085D01*
Y8043D01*
Y8085D01*
X23107Y8127D01*
X23148D01*
X23190Y8085D01*
Y8002D01*
X23148Y7960D01*
X22940Y8210D02*
X23107D01*
X23190Y8293D01*
X23107Y8377D01*
X22940D01*
X22982Y8460D02*
X22940Y8501D01*
Y8585D01*
X22982Y8626D01*
X23023D01*
X23065Y8585D01*
Y8543D01*
Y8585D01*
X23107Y8626D01*
X23148D01*
X23190Y8585D01*
Y8501D01*
X23148Y8460D01*
X23310Y1170D02*
X23260Y1220D01*
X23160D01*
X23110Y1170D01*
Y970D01*
X23160Y920D01*
X23260D01*
X23310Y970D01*
Y1070D01*
X23210D01*
X23410Y920D02*
Y1220D01*
X23610Y920D01*
Y1220D01*
X23710D02*
Y920D01*
X23860D01*
X23910Y970D01*
Y1170D01*
X23860Y1220D01*
X23710D01*
X20400Y1130D02*
Y930D01*
X20700D01*
Y1130D01*
X20550Y930D02*
Y1030D01*
X20400Y1430D02*
Y1230D01*
X20550D01*
X20500Y1330D01*
Y1380D01*
X20550Y1430D01*
X20650D01*
X20700Y1380D01*
Y1280D01*
X20650Y1230D01*
X19400Y1130D02*
Y930D01*
X19700D01*
Y1130D01*
X19550Y930D02*
Y1030D01*
X19700Y1380D02*
X19400D01*
X19550Y1230D01*
Y1430D01*
X18430Y1130D02*
Y930D01*
X18730D01*
Y1130D01*
X18580Y930D02*
Y1030D01*
X18480Y1230D02*
X18430Y1280D01*
Y1380D01*
X18480Y1430D01*
X18530D01*
X18580Y1380D01*
Y1330D01*
Y1380D01*
X18630Y1430D01*
X18680D01*
X18730Y1380D01*
Y1280D01*
X18680Y1230D01*
X17420Y1130D02*
Y930D01*
X17720D01*
Y1130D01*
X17570Y930D02*
Y1030D01*
X17720Y1430D02*
Y1230D01*
X17520Y1430D01*
X17470D01*
X17420Y1380D01*
Y1280D01*
X17470Y1230D01*
X16420Y1130D02*
Y930D01*
X16720D01*
Y1130D01*
X16570Y930D02*
Y1030D01*
X16720Y1230D02*
Y1330D01*
Y1280D01*
X16420D01*
X16470Y1230D01*
X15420Y1130D02*
Y930D01*
X15720D01*
Y1130D01*
X15570Y930D02*
Y1030D01*
X15470Y1230D02*
X15420Y1280D01*
Y1380D01*
X15470Y1430D01*
X15670D01*
X15720Y1380D01*
Y1280D01*
X15670Y1230D01*
X15470D01*
X14480Y1130D02*
X14430Y1080D01*
Y980D01*
X14480Y930D01*
X14680D01*
X14730Y980D01*
Y1080D01*
X14680Y1130D01*
X14580D01*
Y1030D01*
X14680Y1230D02*
X14730Y1280D01*
Y1380D01*
X14680Y1430D01*
X14480D01*
X14430Y1380D01*
Y1280D01*
X14480Y1230D01*
X14530D01*
X14580Y1280D01*
Y1430D01*
X13480Y1130D02*
X13430Y1080D01*
Y980D01*
X13480Y930D01*
X13680D01*
X13730Y980D01*
Y1080D01*
X13680Y1130D01*
X13580D01*
Y1030D01*
X13480Y1230D02*
X13430Y1280D01*
Y1380D01*
X13480Y1430D01*
X13530D01*
X13580Y1380D01*
X13630Y1430D01*
X13680D01*
X13730Y1380D01*
Y1280D01*
X13680Y1230D01*
X13630D01*
X13580Y1280D01*
X13530Y1230D01*
X13480D01*
X13580Y1280D02*
Y1380D01*
X12460Y1130D02*
X12410Y1080D01*
Y980D01*
X12460Y930D01*
X12660D01*
X12710Y980D01*
Y1080D01*
X12660Y1130D01*
X12560D01*
Y1030D01*
X12410Y1230D02*
Y1430D01*
X12460D01*
X12660Y1230D01*
X12710D01*
X11460Y1130D02*
X11410Y1080D01*
Y980D01*
X11460Y930D01*
X11660D01*
X11710Y980D01*
Y1080D01*
X11660Y1130D01*
X11560D01*
Y1030D01*
X11410Y1430D02*
X11460Y1330D01*
X11560Y1230D01*
X11660D01*
X11710Y1280D01*
Y1380D01*
X11660Y1430D01*
X11610D01*
X11560Y1380D01*
Y1230D01*
X10430Y930D02*
X10730D01*
Y1080D01*
X10680Y1130D01*
X10480D01*
X10430Y1080D01*
Y930D01*
X10730Y1230D02*
Y1330D01*
Y1280D01*
X10430D01*
X10480Y1230D01*
X10730Y1480D02*
Y1580D01*
Y1530D01*
X10430D01*
X10480Y1480D01*
X9420Y930D02*
X9720D01*
Y1080D01*
X9670Y1130D01*
X9470D01*
X9420Y1080D01*
Y930D01*
X9720Y1230D02*
Y1330D01*
Y1280D01*
X9420D01*
X9470Y1230D01*
Y1480D02*
X9420Y1530D01*
Y1630D01*
X9470Y1680D01*
X9670D01*
X9720Y1630D01*
Y1530D01*
X9670Y1480D01*
X9470D01*
X8410Y930D02*
X8710D01*
Y1080D01*
X8660Y1130D01*
X8460D01*
X8410Y1080D01*
Y930D01*
X8660Y1230D02*
X8710Y1280D01*
Y1380D01*
X8660Y1430D01*
X8460D01*
X8410Y1380D01*
Y1280D01*
X8460Y1230D01*
X8510D01*
X8560Y1280D01*
Y1430D01*
X7420Y930D02*
X7720D01*
Y1080D01*
X7670Y1130D01*
X7470D01*
X7420Y1080D01*
Y930D01*
Y1430D02*
Y1230D01*
X7570D01*
X7520Y1330D01*
Y1380D01*
X7570Y1430D01*
X7670D01*
X7720Y1380D01*
Y1280D01*
X7670Y1230D01*
X6440Y930D02*
X6740D01*
Y1080D01*
X6690Y1130D01*
X6490D01*
X6440Y1080D01*
Y930D01*
X6740Y1380D02*
X6440D01*
X6590Y1230D01*
Y1430D01*
X5440Y930D02*
X5740D01*
Y1080D01*
X5690Y1130D01*
X5490D01*
X5440Y1080D01*
Y930D01*
X5490Y1230D02*
X5440Y1280D01*
Y1380D01*
X5490Y1430D01*
X5540D01*
X5590Y1380D01*
Y1330D01*
Y1380D01*
X5640Y1430D01*
X5690D01*
X5740Y1380D01*
Y1280D01*
X5690Y1230D01*
X4440Y930D02*
X4740D01*
Y1080D01*
X4690Y1130D01*
X4490D01*
X4440Y1080D01*
Y930D01*
X4740Y1430D02*
Y1230D01*
X4540Y1430D01*
X4490D01*
X4440Y1380D01*
Y1280D01*
X4490Y1230D01*
X3440Y930D02*
X3740D01*
Y1080D01*
X3690Y1130D01*
X3490D01*
X3440Y1080D01*
Y930D01*
X3740Y1230D02*
Y1330D01*
Y1280D01*
X3440D01*
X3490Y1230D01*
X2410Y930D02*
X2710D01*
Y1080D01*
X2660Y1130D01*
X2460D01*
X2410Y1080D01*
Y930D01*
X2460Y1230D02*
X2410Y1280D01*
Y1380D01*
X2460Y1430D01*
X2660D01*
X2710Y1380D01*
Y1280D01*
X2660Y1230D01*
X2460D01*
X1220Y1180D02*
X1270Y1230D01*
X1370D01*
X1420Y1180D01*
Y1130D01*
X1370Y1080D01*
X1320D01*
X1370D01*
X1420Y1030D01*
Y980D01*
X1370Y930D01*
X1270D01*
X1220Y980D01*
X1520Y1230D02*
Y1030D01*
X1620Y930D01*
X1720Y1030D01*
Y1230D01*
X1820Y1180D02*
X1870Y1230D01*
X1970D01*
X2020Y1180D01*
Y1130D01*
X1970Y1080D01*
X1920D01*
X1970D01*
X2020Y1030D01*
Y980D01*
X1970Y930D01*
X1870D01*
X1820Y980D01*
X580Y920D02*
Y1120D01*
X480Y1020D02*
X680D01*
X430Y1420D02*
Y1220D01*
X580D01*
X530Y1320D01*
Y1370D01*
X580Y1420D01*
X680D01*
X730Y1370D01*
Y1270D01*
X680Y1220D01*
X430Y1520D02*
X630D01*
X730Y1620D01*
X630Y1720D01*
X430D01*
M02*
