G04 Layer_Color=32896*
%FSLAX24Y24*%
%MOIN*%
G70*
G01*
G75*
%ADD10C,0.0080*%
%ADD51C,0.0050*%
%ADD56C,0.0090*%
D10*
X23204Y3133D02*
G03*
X23600Y2720I404J-9D01*
G01*
X23874Y2464D02*
G03*
X23600Y2720I-265J-9D01*
G01*
X23874Y2149D02*
Y2464D01*
X23204Y3133D02*
Y6440D01*
X17850Y6794D02*
Y7070D01*
X22614D01*
X17850Y4550D02*
Y5755D01*
Y1558D02*
Y3487D01*
Y1558D02*
X23047D01*
D51*
X11290Y6200D02*
Y7210D01*
X11750D01*
X11290Y6200D02*
X11750D01*
Y7210D01*
X9940Y6200D02*
Y7210D01*
X10400D01*
X9940Y6200D02*
X10400D01*
Y7210D01*
X7700Y4500D02*
X8710D01*
X7700D02*
Y4960D01*
X8710Y4500D02*
Y4960D01*
X7700D02*
X8710D01*
X12230Y4620D02*
X13240D01*
Y4160D02*
Y4620D01*
X12230Y4160D02*
Y4620D01*
Y4160D02*
X13240D01*
X10410Y1780D02*
Y2790D01*
X9950Y1780D02*
X10410D01*
X9950Y2790D02*
X10410D01*
X9950Y1780D02*
Y2790D01*
X11400Y1840D02*
Y2850D01*
X10940Y1840D02*
X11400D01*
X10940Y2850D02*
X11400D01*
X10940Y1840D02*
Y2850D01*
X8700Y5510D02*
Y5970D01*
X7690Y5510D02*
X8700D01*
X7690Y5970D02*
X8700D01*
X7690Y5510D02*
Y5970D01*
X9690Y6630D02*
Y7090D01*
X8680Y6630D02*
X9690D01*
X8680Y7090D02*
X9690D01*
X8680Y6630D02*
Y7090D01*
X9680Y7320D02*
Y7780D01*
X8670Y7320D02*
X9680D01*
X8670Y7780D02*
X9680D01*
X8670Y7320D02*
Y7780D01*
D56*
X8014Y6568D02*
Y7552D01*
X7226Y6568D02*
Y7552D01*
X8014D01*
X7226Y6568D02*
X8014D01*
M02*
