M48
;Layer_Color=9474304
;FILE_FORMAT=2:4
INCH,LZ
;TYPE=PLATED
T1F00S00C0.0120
T2F00S00C0.0354
T3F00S00C0.0394
%
T01
X018775Y00255
X019225
Y00345
Y00435
X0199Y0039
X020575Y00435
X0208Y003
X02125
X0217
X02215
X0226
X02305
X0235
X023275Y00255
X022825
X022375
X021925
X021475
X021025
X0208Y0021
X02215
X0226
X022375Y00165
X021925
X0217Y0012
X02215
X0226
X02305
X0235
X022825Y00165
X02305Y0003
X023725Y00255
X0235Y0039
X02305
X0226
X023275Y00435
X023725
X01843Y00402
X017425Y00435
X016075
X01543Y00437
X01495Y0039
X0145
X01388Y00391
X01353Y00365
X01334Y00426
X01204Y00436
X011125Y00435
X0106Y00386
X01008Y00383
X00955Y0039
X00915Y00384
X00917Y0042
X0092Y00348
X00921Y00313
X00955Y003
X01004Y0029
X009775Y00345
Y00435
X00759Y00468
X006935Y00454
X00674Y00414
X00656Y00349
X006175Y00345
X00581Y0037
X00585Y00308
X00589Y00256
X00659Y00261
X007075Y00255
X0075Y00221
X007975Y00255
X008425
X01016Y0016
X01111Y00162
X011125Y00075
X01108Y00291
X01164Y00356
X01225Y0021
X01303Y0026
X01339Y00231
X01376Y00175
X01462Y00177
X0146Y00224
X01536Y00185
X016075Y00255
X01585Y003
X0163
X01765
X0181
Y0021
X01855
X0181Y0003
X00505
X0046Y0012
X0037
X003025Y00165
X00325Y003
X0037
X00415
X0046
X00505
X00415Y0039
X0037
X00325
X0028
X00235
Y0021
X002175Y00182
X002515Y00114
X0028Y0012
X002125Y00075
X001Y0012
X001225Y00165
X001Y0021
X001675Y00255
X00232Y0056
X00229Y00595
X0028Y0057
X001
X000775Y00615
X001Y0066
X000775Y00795
X001225
X003025
X00389Y00791
X00505Y0084
X004825Y00705
X00613Y007491
X00647Y007251
X00677Y007511
X00777Y00789
X0085Y00751
X00851Y00711
X00805Y00627
X00755Y00566
X00882Y00561
X00886Y00479
X00955Y0048
X010225Y00525
X010675
X011125
X011575
X01135Y0048
X0109
X01148Y00592
X01151Y00733
X0123Y00721
X01274Y00704
X01386Y006906
X01357Y006616
X01528Y00651
X01572Y00686
X01584Y00723
X01698Y00755
X01643Y00633
X0163Y0048
X01585
X01487Y00501
X01374Y00491
X01339Y00481
X01765Y0048
Y0057
X01855
X01846Y00507
X01855Y0066
X01012Y00612
X01026Y00742
X010675Y00795
X00584Y00542
X00546
X0051
X00385Y00563
X018775Y00615
X019Y0066
X01945
X0199
X02052Y00656
X02125Y0066
X0208Y0057
X0205Y00554
X020125Y00525
X019675
X019225
X01945Y0048
X0199
Y0057
X01945
X02131Y00525
X02256Y0053
X02282Y0049
X0235Y0048
X023275Y00525
X023725
Y00795
X021475
T02
X01956Y00045
X02056
X02156
X02256
X02356
X01856
X01756
X01656
X01556
X01456
X01356
X01256
X01156
X01056
X00956
X00856
X00756
X00656
X00556
X00456
X00356
X01695Y00253
Y00353
Y00453
X00256Y00045
X00156
X00056
Y00845
X00156
X00256
X00356
X00456
X00556
X00656
X00756
X00856
X00956
X01056
X01156
X01256
X01356
X01456
X01556
X01656
X01756
X01856
X01695Y00653
Y00553
X01956Y00845
X02056
X02156
X02256
X02356
T03
X00053Y003161
Y00576
M30
